<mxfile host="Electron" modified="2024-04-13T08:30:03.619Z" agent="Mozilla/5.0 (Windows NT 10.0; Win64; x64) AppleWebKit/537.36 (KHTML, like Gecko) draw.io/23.1.5 Chrome/120.0.6099.109 Electron/28.1.0 Safari/537.36" etag="-1OBpAbdfEOW0kMJZw3q" version="23.1.5" type="device">
  <diagram name="Page-1" id="e5MP3v1tcQqfkrlQCdR-">
    <mxGraphModel dx="2693" dy="-144" grid="1" gridSize="10" guides="1" tooltips="1" connect="1" arrows="1" fold="1" page="1" pageScale="1" pageWidth="850" pageHeight="1100" math="0" shadow="0">
      <root>
        <mxCell id="0" />
        <mxCell id="1" parent="0" />
        <mxCell id="_ywE8sGmRXG5GQr4Udn0-2" value="AWS Cloud" style="points=[[0,0],[0.25,0],[0.5,0],[0.75,0],[1,0],[1,0.25],[1,0.5],[1,0.75],[1,1],[0.75,1],[0.5,1],[0.25,1],[0,1],[0,0.75],[0,0.5],[0,0.25]];outlineConnect=0;gradientColor=none;html=1;whiteSpace=wrap;fontSize=12;fontStyle=0;container=0;pointerEvents=0;collapsible=0;recursiveResize=0;shape=mxgraph.aws4.group;grIcon=mxgraph.aws4.group_aws_cloud_alt;strokeColor=#232F3E;fillColor=none;verticalAlign=top;align=left;spacingLeft=30;fontColor=#232F3E;dashed=0;" parent="1" vertex="1">
          <mxGeometry x="100" y="1250" width="1340" height="930" as="geometry" />
        </mxCell>
        <mxCell id="_ywE8sGmRXG5GQr4Udn0-7" value="" style="sketch=0;outlineConnect=0;fontColor=#232F3E;gradientColor=none;fillColor=#232F3D;strokeColor=none;dashed=0;verticalLabelPosition=bottom;verticalAlign=top;align=center;html=1;fontSize=12;fontStyle=0;aspect=fixed;pointerEvents=1;shape=mxgraph.aws4.user;" parent="1" vertex="1">
          <mxGeometry x="843.29" y="2220" width="78" height="78" as="geometry" />
        </mxCell>
        <mxCell id="_ywE8sGmRXG5GQr4Udn0-28" value="" style="edgeStyle=orthogonalEdgeStyle;html=1;endArrow=block;elbow=vertical;startArrow=none;endFill=1;strokeColor=#545B64;rounded=0;entryX=0;entryY=0.5;entryDx=0;entryDy=0;entryPerimeter=0;" parent="1" source="_ywE8sGmRXG5GQr4Udn0-6" target="_ywE8sGmRXG5GQr4Udn0-10" edge="1">
          <mxGeometry width="100" relative="1" as="geometry">
            <mxPoint x="-40" y="1540" as="sourcePoint" />
            <mxPoint x="60" y="1540" as="targetPoint" />
          </mxGeometry>
        </mxCell>
        <mxCell id="_ywE8sGmRXG5GQr4Udn0-45" value="" style="group" parent="1" vertex="1" connectable="0">
          <mxGeometry x="-30" y="1480" width="80" height="108" as="geometry" />
        </mxCell>
        <mxCell id="_ywE8sGmRXG5GQr4Udn0-6" value="" style="sketch=0;outlineConnect=0;fontColor=#232F3E;gradientColor=none;fillColor=#232F3D;strokeColor=none;dashed=0;verticalLabelPosition=bottom;verticalAlign=top;align=center;html=1;fontSize=12;fontStyle=0;aspect=fixed;pointerEvents=1;shape=mxgraph.aws4.user;" parent="_ywE8sGmRXG5GQr4Udn0-45" vertex="1">
          <mxGeometry x="2" width="78" height="78" as="geometry" />
        </mxCell>
        <mxCell id="_ywE8sGmRXG5GQr4Udn0-18" value="Developer" style="text;html=1;align=center;verticalAlign=middle;resizable=0;points=[];autosize=1;strokeColor=none;fillColor=none;" parent="_ywE8sGmRXG5GQr4Udn0-45" vertex="1">
          <mxGeometry y="78" width="80" height="30" as="geometry" />
        </mxCell>
        <mxCell id="_ywE8sGmRXG5GQr4Udn0-53" value="User" style="text;html=1;align=center;verticalAlign=middle;resizable=0;points=[];autosize=1;strokeColor=none;fillColor=none;" parent="1" vertex="1">
          <mxGeometry x="857.29" y="2300" width="50" height="30" as="geometry" />
        </mxCell>
        <mxCell id="_ywE8sGmRXG5GQr4Udn0-3" value="us-east-1" style="points=[[0,0],[0.25,0],[0.5,0],[0.75,0],[1,0],[1,0.25],[1,0.5],[1,0.75],[1,1],[0.75,1],[0.5,1],[0.25,1],[0,1],[0,0.75],[0,0.5],[0,0.25]];outlineConnect=0;gradientColor=none;html=1;whiteSpace=wrap;fontSize=12;fontStyle=0;container=0;pointerEvents=0;collapsible=0;recursiveResize=0;shape=mxgraph.aws4.group;grIcon=mxgraph.aws4.group_region;strokeColor=#00A4A6;fillColor=none;verticalAlign=top;align=left;spacingLeft=30;fontColor=#147EBA;dashed=1;strokeWidth=3;" parent="1" vertex="1">
          <mxGeometry x="130" y="1280" width="1290" height="880" as="geometry" />
        </mxCell>
        <mxCell id="_ywE8sGmRXG5GQr4Udn0-8" value="" style="sketch=0;points=[[0,0,0],[0.25,0,0],[0.5,0,0],[0.75,0,0],[1,0,0],[0,1,0],[0.25,1,0],[0.5,1,0],[0.75,1,0],[1,1,0],[0,0.25,0],[0,0.5,0],[0,0.75,0],[1,0.25,0],[1,0.5,0],[1,0.75,0]];outlineConnect=0;fontColor=#232F3E;fillColor=#0000CC;strokeColor=#ffffff;dashed=0;verticalLabelPosition=bottom;verticalAlign=top;align=center;html=1;fontSize=12;fontStyle=0;aspect=fixed;shape=mxgraph.aws4.resourceIcon;resIcon=mxgraph.aws4.codebuild;" parent="1" vertex="1">
          <mxGeometry x="300" y="1642" width="78" height="78" as="geometry" />
        </mxCell>
        <mxCell id="_ywE8sGmRXG5GQr4Udn0-9" value="" style="sketch=0;points=[[0,0,0],[0.25,0,0],[0.5,0,0],[0.75,0,0],[1,0,0],[0,1,0],[0.25,1,0],[0.5,1,0],[0.75,1,0],[1,1,0],[0,0.25,0],[0,0.5,0],[0,0.75,0],[1,0.25,0],[1,0.5,0],[1,0.75,0]];outlineConnect=0;fontColor=#232F3E;fillColor=#0000CC;strokeColor=#ffffff;dashed=0;verticalLabelPosition=bottom;verticalAlign=top;align=center;html=1;fontSize=12;fontStyle=0;aspect=fixed;shape=mxgraph.aws4.resourceIcon;resIcon=mxgraph.aws4.codepipeline;" parent="1" vertex="1">
          <mxGeometry x="301" y="1362" width="78" height="78" as="geometry" />
        </mxCell>
        <mxCell id="_ywE8sGmRXG5GQr4Udn0-10" value="" style="sketch=0;points=[[0,0,0],[0.25,0,0],[0.5,0,0],[0.75,0,0],[1,0,0],[0,1,0],[0.25,1,0],[0.5,1,0],[0.75,1,0],[1,1,0],[0,0.25,0],[0,0.5,0],[0,0.75,0],[1,0.25,0],[1,0.5,0],[1,0.75,0]];outlineConnect=0;fontColor=#232F3E;fillColor=#0000CC;strokeColor=#ffffff;dashed=0;verticalLabelPosition=bottom;verticalAlign=top;align=center;html=1;fontSize=12;fontStyle=0;aspect=fixed;shape=mxgraph.aws4.resourceIcon;resIcon=mxgraph.aws4.codecommit;" parent="1" vertex="1">
          <mxGeometry x="300" y="1480" width="78" height="78" as="geometry" />
        </mxCell>
        <mxCell id="_ywE8sGmRXG5GQr4Udn0-11" value="" style="sketch=0;points=[[0,0,0],[0.25,0,0],[0.5,0,0],[0.75,0,0],[1,0,0],[0,1,0],[0.25,1,0],[0.5,1,0],[0.75,1,0],[1,1,0],[0,0.25,0],[0,0.5,0],[0,0.75,0],[1,0.25,0],[1,0.5,0],[1,0.75,0]];outlineConnect=0;fontColor=#232F3E;fillColor=#0000CC;strokeColor=#ffffff;dashed=0;verticalLabelPosition=bottom;verticalAlign=top;align=center;html=1;fontSize=12;fontStyle=0;aspect=fixed;shape=mxgraph.aws4.resourceIcon;resIcon=mxgraph.aws4.codedeploy;" parent="1" vertex="1">
          <mxGeometry x="300" y="1798" width="78" height="78" as="geometry" />
        </mxCell>
        <mxCell id="_ywE8sGmRXG5GQr4Udn0-13" value="" style="sketch=0;points=[[0,0,0],[0.25,0,0],[0.5,0,0],[0.75,0,0],[1,0,0],[0,1,0],[0.25,1,0],[0.5,1,0],[0.75,1,0],[1,1,0],[0,0.25,0],[0,0.5,0],[0,0.75,0],[1,0.25,0],[1,0.5,0],[1,0.75,0]];outlineConnect=0;fontColor=#232F3E;fillColor=#ED7100;strokeColor=#ffffff;dashed=0;verticalLabelPosition=bottom;verticalAlign=top;align=center;html=1;fontSize=12;fontStyle=0;aspect=fixed;shape=mxgraph.aws4.resourceIcon;resIcon=mxgraph.aws4.ecr;" parent="1" vertex="1">
          <mxGeometry x="500" y="1480" width="78" height="78" as="geometry" />
        </mxCell>
        <mxCell id="_ywE8sGmRXG5GQr4Udn0-14" value="" style="sketch=0;points=[[0,0,0],[0.25,0,0],[0.5,0,0],[0.75,0,0],[1,0,0],[0,1,0],[0.25,1,0],[0.5,1,0],[0.75,1,0],[1,1,0],[0,0.25,0],[0,0.5,0],[0,0.75,0],[1,0.25,0],[1,0.5,0],[1,0.75,0]];outlineConnect=0;fontColor=#232F3E;fillColor=#ED7100;strokeColor=#ffffff;dashed=0;verticalLabelPosition=bottom;verticalAlign=top;align=center;html=1;fontSize=12;fontStyle=0;aspect=fixed;shape=mxgraph.aws4.resourceIcon;resIcon=mxgraph.aws4.ecs;" parent="1" vertex="1">
          <mxGeometry x="500" y="1798" width="78" height="78" as="geometry" />
        </mxCell>
        <mxCell id="_ywE8sGmRXG5GQr4Udn0-16" value="" style="sketch=0;points=[[0,0,0],[0.25,0,0],[0.5,0,0],[0.75,0,0],[1,0,0],[0,1,0],[0.25,1,0],[0.5,1,0],[0.75,1,0],[1,1,0],[0,0.25,0],[0,0.5,0],[0,0.75,0],[1,0.25,0],[1,0.5,0],[1,0.75,0]];outlineConnect=0;fontColor=#232F3E;fillColor=#7AA116;strokeColor=#ffffff;dashed=0;verticalLabelPosition=bottom;verticalAlign=top;align=center;html=1;fontSize=12;fontStyle=0;aspect=fixed;shape=mxgraph.aws4.resourceIcon;resIcon=mxgraph.aws4.s3;" parent="1" vertex="1">
          <mxGeometry x="150" y="1720" width="78" height="78" as="geometry" />
        </mxCell>
        <mxCell id="_ywE8sGmRXG5GQr4Udn0-17" value="" style="sketch=0;points=[[0,0,0],[0.25,0,0],[0.5,0,0],[0.75,0,0],[1,0,0],[0,1,0],[0.25,1,0],[0.5,1,0],[0.75,1,0],[1,1,0],[0,0.25,0],[0,0.5,0],[0,0.75,0],[1,0.25,0],[1,0.5,0],[1,0.75,0]];points=[[0,0,0],[0.25,0,0],[0.5,0,0],[0.75,0,0],[1,0,0],[0,1,0],[0.25,1,0],[0.5,1,0],[0.75,1,0],[1,1,0],[0,0.25,0],[0,0.5,0],[0,0.75,0],[1,0.25,0],[1,0.5,0],[1,0.75,0]];outlineConnect=0;fontColor=#232F3E;fillColor=#E7157B;strokeColor=#ffffff;dashed=0;verticalLabelPosition=bottom;verticalAlign=top;align=center;html=1;fontSize=12;fontStyle=0;aspect=fixed;shape=mxgraph.aws4.resourceIcon;resIcon=mxgraph.aws4.cloudwatch_2;" parent="1" vertex="1">
          <mxGeometry x="500" y="1642" width="78" height="78" as="geometry" />
        </mxCell>
        <mxCell id="_ywE8sGmRXG5GQr4Udn0-19" value="CodeCommit" style="text;html=1;align=center;verticalAlign=middle;resizable=0;points=[];autosize=1;strokeColor=none;fillColor=none;" parent="1" vertex="1">
          <mxGeometry x="294" y="1558" width="90" height="30" as="geometry" />
        </mxCell>
        <mxCell id="_ywE8sGmRXG5GQr4Udn0-22" value="CodeDeploy" style="text;html=1;align=center;verticalAlign=middle;resizable=0;points=[];autosize=1;strokeColor=none;fillColor=none;" parent="1" vertex="1">
          <mxGeometry x="294" y="1888" width="90" height="30" as="geometry" />
        </mxCell>
        <mxCell id="_ywE8sGmRXG5GQr4Udn0-24" value="ECS" style="text;html=1;align=center;verticalAlign=middle;resizable=0;points=[];autosize=1;strokeColor=none;fillColor=none;" parent="1" vertex="1">
          <mxGeometry x="514" y="1876" width="50" height="30" as="geometry" />
        </mxCell>
        <mxCell id="_ywE8sGmRXG5GQr4Udn0-26" value="CloudWatch" style="text;html=1;align=center;verticalAlign=middle;resizable=0;points=[];autosize=1;strokeColor=none;fillColor=none;" parent="1" vertex="1">
          <mxGeometry x="494" y="1720" width="90" height="30" as="geometry" />
        </mxCell>
        <mxCell id="_ywE8sGmRXG5GQr4Udn0-25" value="ECR" style="text;html=1;align=center;verticalAlign=middle;resizable=0;points=[];autosize=1;strokeColor=none;fillColor=none;" parent="1" vertex="1">
          <mxGeometry x="514" y="1558" width="50" height="30" as="geometry" />
        </mxCell>
        <mxCell id="_ywE8sGmRXG5GQr4Udn0-27" value="" style="sketch=0;points=[[0,0,0],[0.25,0,0],[0.5,0,0],[0.75,0,0],[1,0,0],[0,1,0],[0.25,1,0],[0.5,1,0],[0.75,1,0],[1,1,0],[0,0.25,0],[0,0.5,0],[0,0.75,0],[1,0.25,0],[1,0.5,0],[1,0.75,0]];outlineConnect=0;fontColor=#232F3E;fillColor=#ED7100;strokeColor=#ffffff;dashed=0;verticalLabelPosition=bottom;verticalAlign=top;align=center;html=1;fontSize=12;fontStyle=0;aspect=fixed;shape=mxgraph.aws4.resourceIcon;resIcon=mxgraph.aws4.fargate;" parent="1" vertex="1">
          <mxGeometry x="640" y="1660" width="80" height="80" as="geometry" />
        </mxCell>
        <mxCell id="_ywE8sGmRXG5GQr4Udn0-20" value="CodePipeline" style="text;html=1;align=center;verticalAlign=middle;resizable=0;points=[];autosize=1;strokeColor=none;fillColor=none;" parent="1" vertex="1">
          <mxGeometry x="294" y="1332" width="90" height="30" as="geometry" />
        </mxCell>
        <mxCell id="_ywE8sGmRXG5GQr4Udn0-32" value="" style="edgeStyle=orthogonalEdgeStyle;html=1;endArrow=block;elbow=vertical;startArrow=none;endFill=1;strokeColor=#545B64;rounded=0;exitX=1;exitY=0.5;exitDx=0;exitDy=0;exitPerimeter=0;entryX=0;entryY=0.5;entryDx=0;entryDy=0;entryPerimeter=0;" parent="1" source="_ywE8sGmRXG5GQr4Udn0-8" target="_ywE8sGmRXG5GQr4Udn0-13" edge="1">
          <mxGeometry width="100" relative="1" as="geometry">
            <mxPoint x="410" y="1380" as="sourcePoint" />
            <mxPoint x="510" y="1380" as="targetPoint" />
          </mxGeometry>
        </mxCell>
        <mxCell id="_ywE8sGmRXG5GQr4Udn0-33" value="Store Image" style="edgeLabel;html=1;align=center;verticalAlign=middle;resizable=0;points=[];" parent="_ywE8sGmRXG5GQr4Udn0-32" vertex="1" connectable="0">
          <mxGeometry x="-0.0667" y="3" relative="1" as="geometry">
            <mxPoint x="14" y="1" as="offset" />
          </mxGeometry>
        </mxCell>
        <mxCell id="_ywE8sGmRXG5GQr4Udn0-34" value="" style="edgeStyle=orthogonalEdgeStyle;html=1;endArrow=block;elbow=vertical;startArrow=none;endFill=1;strokeColor=#545B64;rounded=0;exitX=1;exitY=0.5;exitDx=0;exitDy=0;exitPerimeter=0;entryX=0;entryY=0.5;entryDx=0;entryDy=0;entryPerimeter=0;" parent="1" source="_ywE8sGmRXG5GQr4Udn0-8" target="_ywE8sGmRXG5GQr4Udn0-17" edge="1">
          <mxGeometry width="100" relative="1" as="geometry">
            <mxPoint x="510" y="1610" as="sourcePoint" />
            <mxPoint x="610" y="1610" as="targetPoint" />
          </mxGeometry>
        </mxCell>
        <mxCell id="_ywE8sGmRXG5GQr4Udn0-35" value="Log" style="edgeLabel;html=1;align=center;verticalAlign=middle;resizable=0;points=[];" parent="_ywE8sGmRXG5GQr4Udn0-34" vertex="1" connectable="0">
          <mxGeometry x="0.1851" relative="1" as="geometry">
            <mxPoint x="10" as="offset" />
          </mxGeometry>
        </mxCell>
        <mxCell id="_ywE8sGmRXG5GQr4Udn0-36" value="" style="edgeStyle=orthogonalEdgeStyle;html=1;endArrow=block;elbow=vertical;startArrow=none;endFill=1;strokeColor=#545B64;rounded=0;exitX=0.5;exitY=1;exitDx=0;exitDy=0;exitPerimeter=0;entryX=0.5;entryY=0;entryDx=0;entryDy=0;entryPerimeter=0;" parent="1" source="_ywE8sGmRXG5GQr4Udn0-10" target="_ywE8sGmRXG5GQr4Udn0-8" edge="1">
          <mxGeometry width="100" relative="1" as="geometry">
            <mxPoint x="-140" y="1640" as="sourcePoint" />
            <mxPoint x="-40" y="1640" as="targetPoint" />
          </mxGeometry>
        </mxCell>
        <mxCell id="_ywE8sGmRXG5GQr4Udn0-37" value="" style="edgeStyle=orthogonalEdgeStyle;html=1;endArrow=none;elbow=vertical;startArrow=block;startFill=1;strokeColor=#545B64;rounded=0;entryX=0.5;entryY=1;entryDx=0;entryDy=0;entryPerimeter=0;exitX=0.5;exitY=0;exitDx=0;exitDy=0;exitPerimeter=0;" parent="1" source="_ywE8sGmRXG5GQr4Udn0-11" target="_ywE8sGmRXG5GQr4Udn0-8" edge="1">
          <mxGeometry width="100" relative="1" as="geometry">
            <mxPoint x="-100" y="1680" as="sourcePoint" />
            <mxPoint y="1680" as="targetPoint" />
          </mxGeometry>
        </mxCell>
        <mxCell id="_ywE8sGmRXG5GQr4Udn0-38" value="" style="edgeStyle=orthogonalEdgeStyle;html=1;endArrow=none;elbow=vertical;startArrow=block;startFill=1;strokeColor=#545B64;rounded=0;entryX=0;entryY=0.5;entryDx=0;entryDy=0;entryPerimeter=0;exitX=0.5;exitY=0;exitDx=0;exitDy=0;exitPerimeter=0;" parent="1" source="_ywE8sGmRXG5GQr4Udn0-16" target="_ywE8sGmRXG5GQr4Udn0-8" edge="1">
          <mxGeometry width="100" relative="1" as="geometry">
            <mxPoint x="-150" y="1680" as="sourcePoint" />
            <mxPoint x="-50" y="1680" as="targetPoint" />
          </mxGeometry>
        </mxCell>
        <mxCell id="_ywE8sGmRXG5GQr4Udn0-40" value="Store Artifacts" style="edgeLabel;html=1;align=center;verticalAlign=middle;resizable=0;points=[];" parent="_ywE8sGmRXG5GQr4Udn0-38" vertex="1" connectable="0">
          <mxGeometry x="0.114" y="3" relative="1" as="geometry">
            <mxPoint x="11" y="-13" as="offset" />
          </mxGeometry>
        </mxCell>
        <mxCell id="_ywE8sGmRXG5GQr4Udn0-39" value="" style="edgeStyle=orthogonalEdgeStyle;html=1;endArrow=block;elbow=vertical;startArrow=none;endFill=1;strokeColor=#545B64;rounded=0;exitX=0.5;exitY=1;exitDx=0;exitDy=0;exitPerimeter=0;entryX=0;entryY=0.5;entryDx=0;entryDy=0;entryPerimeter=0;" parent="1" source="_ywE8sGmRXG5GQr4Udn0-16" target="_ywE8sGmRXG5GQr4Udn0-11" edge="1">
          <mxGeometry width="100" relative="1" as="geometry">
            <mxPoint x="120" y="1940" as="sourcePoint" />
            <mxPoint x="220" y="1940" as="targetPoint" />
          </mxGeometry>
        </mxCell>
        <mxCell id="_ywE8sGmRXG5GQr4Udn0-41" value="Get Artifacts" style="edgeLabel;html=1;align=center;verticalAlign=middle;resizable=0;points=[];" parent="_ywE8sGmRXG5GQr4Udn0-39" vertex="1" connectable="0">
          <mxGeometry x="0.3493" relative="1" as="geometry">
            <mxPoint x="-8" y="13" as="offset" />
          </mxGeometry>
        </mxCell>
        <mxCell id="_ywE8sGmRXG5GQr4Udn0-21" value="S3" style="text;html=1;align=center;verticalAlign=middle;resizable=0;points=[];autosize=1;strokeColor=none;fillColor=none;" parent="1" vertex="1">
          <mxGeometry x="140" y="1798" width="40" height="30" as="geometry" />
        </mxCell>
        <mxCell id="_ywE8sGmRXG5GQr4Udn0-42" value="" style="edgeStyle=orthogonalEdgeStyle;html=1;endArrow=block;elbow=vertical;startArrow=none;endFill=1;strokeColor=#545B64;rounded=0;exitX=1;exitY=0.5;exitDx=0;exitDy=0;exitPerimeter=0;entryX=0;entryY=0.5;entryDx=0;entryDy=0;entryPerimeter=0;" parent="1" source="_ywE8sGmRXG5GQr4Udn0-11" target="_ywE8sGmRXG5GQr4Udn0-14" edge="1">
          <mxGeometry width="100" relative="1" as="geometry">
            <mxPoint x="378" y="597" as="sourcePoint" />
            <mxPoint x="460" y="1837" as="targetPoint" />
          </mxGeometry>
        </mxCell>
        <mxCell id="_ywE8sGmRXG5GQr4Udn0-43" value="Deploy" style="edgeLabel;html=1;align=center;verticalAlign=middle;resizable=0;points=[];" parent="_ywE8sGmRXG5GQr4Udn0-42" vertex="1" connectable="0">
          <mxGeometry x="-0.1234" y="-1" relative="1" as="geometry">
            <mxPoint x="9" y="-18" as="offset" />
          </mxGeometry>
        </mxCell>
        <mxCell id="_ywE8sGmRXG5GQr4Udn0-44" value="&lt;font color=&quot;#0000ff&quot;&gt;Deployment Pipeline&lt;/font&gt;" style="fillColor=none;strokeColor=#0000FF;dashed=1;verticalAlign=top;fontStyle=0;fontColor=#5A6C86;whiteSpace=wrap;html=1;strokeWidth=3;" parent="1" vertex="1">
          <mxGeometry x="270" y="1440" width="140" height="480" as="geometry" />
        </mxCell>
        <mxCell id="_ywE8sGmRXG5GQr4Udn0-29" value="Push commit" style="text;html=1;align=center;verticalAlign=middle;resizable=0;points=[];autosize=1;strokeColor=none;fillColor=none;" parent="1" vertex="1">
          <mxGeometry x="150" y="1488" width="90" height="30" as="geometry" />
        </mxCell>
        <mxCell id="_ywE8sGmRXG5GQr4Udn0-23" value="CodeBuild" style="text;html=1;align=center;verticalAlign=middle;resizable=0;points=[];autosize=1;strokeColor=none;fillColor=none;" parent="1" vertex="1">
          <mxGeometry x="298" y="1720" width="80" height="30" as="geometry" />
        </mxCell>
        <mxCell id="_ywE8sGmRXG5GQr4Udn0-70" style="edgeStyle=orthogonalEdgeStyle;rounded=0;orthogonalLoop=1;jettySize=auto;html=1;entryX=0.5;entryY=1;entryDx=0;entryDy=0;entryPerimeter=0;" parent="1" source="_ywE8sGmRXG5GQr4Udn0-14" target="_ywE8sGmRXG5GQr4Udn0-27" edge="1">
          <mxGeometry relative="1" as="geometry" />
        </mxCell>
        <mxCell id="_ywE8sGmRXG5GQr4Udn0-73" value="Fargate" style="text;html=1;align=center;verticalAlign=middle;resizable=0;points=[];autosize=1;strokeColor=none;fillColor=none;" parent="1" vertex="1">
          <mxGeometry x="650" y="1630" width="60" height="30" as="geometry" />
        </mxCell>
        <mxCell id="_ywE8sGmRXG5GQr4Udn0-4" value="&lt;font color=&quot;#001933&quot;&gt;vpc&amp;nbsp;172.31.0.0/16&lt;/font&gt;" style="points=[[0,0],[0.25,0],[0.5,0],[0.75,0],[1,0],[1,0.25],[1,0.5],[1,0.75],[1,1],[0.75,1],[0.5,1],[0.25,1],[0,1],[0,0.75],[0,0.5],[0,0.25]];outlineConnect=0;gradientColor=none;html=1;whiteSpace=wrap;fontSize=12;fontStyle=0;container=0;pointerEvents=0;collapsible=0;recursiveResize=0;shape=mxgraph.aws4.group;grIcon=mxgraph.aws4.group_vpc2;strokeColor=#8C4FFF;fillColor=none;verticalAlign=top;align=left;spacingLeft=30;fontColor=#AAB7B8;dashed=0;" parent="1" vertex="1">
          <mxGeometry x="780" y="1320" width="600" height="810" as="geometry" />
        </mxCell>
        <mxCell id="_ywE8sGmRXG5GQr4Udn0-57" value="us-east-1a" style="fillColor=none;strokeColor=#147EBA;dashed=1;verticalAlign=top;fontStyle=0;fontColor=#147EBA;whiteSpace=wrap;html=1;strokeWidth=2;" parent="1" vertex="1">
          <mxGeometry x="820" y="1360" width="520" height="200" as="geometry" />
        </mxCell>
        <mxCell id="_ywE8sGmRXG5GQr4Udn0-58" value="Public subnet" style="points=[[0,0],[0.25,0],[0.5,0],[0.75,0],[1,0],[1,0.25],[1,0.5],[1,0.75],[1,1],[0.75,1],[0.5,1],[0.25,1],[0,1],[0,0.75],[0,0.5],[0,0.25]];outlineConnect=0;gradientColor=none;html=1;whiteSpace=wrap;fontSize=12;fontStyle=0;container=1;pointerEvents=0;collapsible=0;recursiveResize=0;shape=mxgraph.aws4.group;grIcon=mxgraph.aws4.group_security_group;grStroke=0;strokeColor=#7AA116;fillColor=#F2F6E8;verticalAlign=top;align=left;spacingLeft=30;fontColor=#248814;dashed=0;" parent="1" vertex="1">
          <mxGeometry x="830" y="1380" width="500" height="160" as="geometry" />
        </mxCell>
        <mxCell id="_ywE8sGmRXG5GQr4Udn0-59" value="Public subnet" style="points=[[0,0],[0.25,0],[0.5,0],[0.75,0],[1,0],[1,0.25],[1,0.5],[1,0.75],[1,1],[0.75,1],[0.5,1],[0.25,1],[0,1],[0,0.75],[0,0.5],[0,0.25]];outlineConnect=0;gradientColor=none;html=1;whiteSpace=wrap;fontSize=12;fontStyle=0;container=1;pointerEvents=0;collapsible=0;recursiveResize=0;shape=mxgraph.aws4.group;grIcon=mxgraph.aws4.group_security_group;grStroke=0;strokeColor=#7AA116;fillColor=#F2F6E8;verticalAlign=top;align=left;spacingLeft=30;fontColor=#248814;dashed=0;" parent="1" vertex="1">
          <mxGeometry x="830" y="1620" width="500" height="120" as="geometry" />
        </mxCell>
        <mxCell id="_ywE8sGmRXG5GQr4Udn0-61" value="Public subnet" style="points=[[0,0],[0.25,0],[0.5,0],[0.75,0],[1,0],[1,0.25],[1,0.5],[1,0.75],[1,1],[0.75,1],[0.5,1],[0.25,1],[0,1],[0,0.75],[0,0.5],[0,0.25]];outlineConnect=0;gradientColor=none;html=1;whiteSpace=wrap;fontSize=12;fontStyle=0;container=1;pointerEvents=0;collapsible=0;recursiveResize=0;shape=mxgraph.aws4.group;grIcon=mxgraph.aws4.group_security_group;grStroke=0;strokeColor=#7AA116;fillColor=#F2F6E8;verticalAlign=top;align=left;spacingLeft=30;fontColor=#248814;dashed=0;" parent="1" vertex="1">
          <mxGeometry x="830" y="1860" width="500" height="120" as="geometry" />
        </mxCell>
        <mxCell id="_ywE8sGmRXG5GQr4Udn0-62" value="&lt;font color=&quot;#0000ff&quot;&gt;Blue Target group&lt;/font&gt;" style="fillColor=none;strokeColor=#6678ff;dashed=1;verticalAlign=top;fontStyle=0;fontColor=#232F3D;whiteSpace=wrap;html=1;gradientColor=default;dashPattern=12 12;strokeWidth=3;" parent="1" vertex="1">
          <mxGeometry x="860" y="1420" width="200" height="540" as="geometry" />
        </mxCell>
        <mxCell id="_ywE8sGmRXG5GQr4Udn0-63" value="&lt;font color=&quot;#00cc00&quot;&gt;Green Target group&lt;/font&gt;" style="fillColor=none;strokeColor=#42ff29;dashed=1;verticalAlign=top;fontStyle=0;fontColor=#232F3D;whiteSpace=wrap;html=1;gradientColor=default;dashPattern=12 12;strokeWidth=3;" parent="1" vertex="1">
          <mxGeometry x="1100" y="1420" width="200" height="540" as="geometry" />
        </mxCell>
        <mxCell id="_ywE8sGmRXG5GQr4Udn0-64" value="" style="sketch=0;outlineConnect=0;fontColor=#232F3E;gradientColor=none;fillColor=#ED7100;strokeColor=none;dashed=0;verticalLabelPosition=bottom;verticalAlign=top;align=center;html=1;fontSize=12;fontStyle=0;aspect=fixed;pointerEvents=1;shape=mxgraph.aws4.container_1;" parent="1" vertex="1">
          <mxGeometry x="921.29" y="1460" width="77.42" height="50" as="geometry" />
        </mxCell>
        <mxCell id="_ywE8sGmRXG5GQr4Udn0-65" value="" style="sketch=0;outlineConnect=0;fontColor=#232F3E;gradientColor=none;fillColor=#ED7100;strokeColor=none;dashed=0;verticalLabelPosition=bottom;verticalAlign=top;align=center;html=1;fontSize=12;fontStyle=0;aspect=fixed;pointerEvents=1;shape=mxgraph.aws4.container_1;" parent="1" vertex="1">
          <mxGeometry x="1161.29" y="1460" width="77.42" height="50" as="geometry" />
        </mxCell>
        <mxCell id="_ywE8sGmRXG5GQr4Udn0-66" value="" style="sketch=0;outlineConnect=0;fontColor=#232F3E;gradientColor=none;fillColor=#ED7100;strokeColor=none;dashed=0;verticalLabelPosition=bottom;verticalAlign=top;align=center;html=1;fontSize=12;fontStyle=0;aspect=fixed;pointerEvents=1;shape=mxgraph.aws4.container_1;" parent="1" vertex="1">
          <mxGeometry x="921.29" y="1665" width="77.42" height="50" as="geometry" />
        </mxCell>
        <mxCell id="_ywE8sGmRXG5GQr4Udn0-67" value="" style="sketch=0;outlineConnect=0;fontColor=#232F3E;gradientColor=none;fillColor=#ED7100;strokeColor=none;dashed=0;verticalLabelPosition=bottom;verticalAlign=top;align=center;html=1;fontSize=12;fontStyle=0;aspect=fixed;pointerEvents=1;shape=mxgraph.aws4.container_1;" parent="1" vertex="1">
          <mxGeometry x="921.29" y="1895" width="77.42" height="50" as="geometry" />
        </mxCell>
        <mxCell id="_ywE8sGmRXG5GQr4Udn0-68" value="" style="sketch=0;outlineConnect=0;fontColor=#232F3E;gradientColor=none;fillColor=#ED7100;strokeColor=none;dashed=0;verticalLabelPosition=bottom;verticalAlign=top;align=center;html=1;fontSize=12;fontStyle=0;aspect=fixed;pointerEvents=1;shape=mxgraph.aws4.container_1;" parent="1" vertex="1">
          <mxGeometry x="1161.29" y="1665" width="77.42" height="50" as="geometry" />
        </mxCell>
        <mxCell id="_ywE8sGmRXG5GQr4Udn0-69" value="" style="sketch=0;outlineConnect=0;fontColor=#232F3E;gradientColor=none;fillColor=#ED7100;strokeColor=none;dashed=0;verticalLabelPosition=bottom;verticalAlign=top;align=center;html=1;fontSize=12;fontStyle=0;aspect=fixed;pointerEvents=1;shape=mxgraph.aws4.container_1;" parent="1" vertex="1">
          <mxGeometry x="1161.29" y="1895" width="77.42" height="50" as="geometry" />
        </mxCell>
        <mxCell id="_ywE8sGmRXG5GQr4Udn0-71" value="&lt;font style=&quot;font-size: 15px;&quot; color=&quot;#ff8000&quot;&gt;Fargate Tasks&lt;/font&gt;" style="fillColor=none;strokeColor=#fb8618;dashed=1;verticalAlign=top;fontStyle=0;fontColor=#5A6C86;whiteSpace=wrap;html=1;strokeWidth=3;" parent="1" vertex="1">
          <mxGeometry x="890" y="1450" width="380" height="500" as="geometry" />
        </mxCell>
        <mxCell id="_ywE8sGmRXG5GQr4Udn0-52" value="" style="sketch=0;outlineConnect=0;fontColor=#232F3E;gradientColor=none;fillColor=#8C4FFF;strokeColor=none;dashed=0;verticalLabelPosition=bottom;verticalAlign=top;align=center;html=1;fontSize=12;fontStyle=0;aspect=fixed;pointerEvents=1;shape=mxgraph.aws4.internet_gateway;" parent="1" vertex="1">
          <mxGeometry x="843.29" y="2040" width="78" height="78" as="geometry" />
        </mxCell>
        <mxCell id="_ywE8sGmRXG5GQr4Udn0-54" value="us-east-1b" style="fillColor=none;strokeColor=#147EBA;dashed=1;verticalAlign=top;fontStyle=0;fontColor=#147EBA;whiteSpace=wrap;html=1;strokeWidth=2;" parent="1" vertex="1">
          <mxGeometry x="820" y="1595" width="520" height="160" as="geometry" />
        </mxCell>
        <mxCell id="_ywE8sGmRXG5GQr4Udn0-55" value="us-east-1c" style="fillColor=none;strokeColor=#147EBA;dashed=1;verticalAlign=top;fontStyle=0;fontColor=#147EBA;whiteSpace=wrap;html=1;strokeWidth=2;" parent="1" vertex="1">
          <mxGeometry x="817.5" y="1830" width="520" height="160" as="geometry" />
        </mxCell>
        <mxCell id="_ywE8sGmRXG5GQr4Udn0-82" value="Application Load&lt;br&gt;Balancer" style="text;html=1;align=center;verticalAlign=middle;resizable=0;points=[];autosize=1;strokeColor=none;fillColor=none;" parent="1" vertex="1">
          <mxGeometry x="1120" y="2049" width="110" height="40" as="geometry" />
        </mxCell>
        <mxCell id="_ywE8sGmRXG5GQr4Udn0-51" value="" style="sketch=0;outlineConnect=0;fontColor=#232F3E;gradientColor=none;fillColor=#8C4FFF;strokeColor=none;dashed=0;verticalLabelPosition=bottom;verticalAlign=top;align=center;html=1;fontSize=12;fontStyle=0;aspect=fixed;pointerEvents=1;shape=mxgraph.aws4.application_load_balancer;" parent="1" vertex="1">
          <mxGeometry x="1038.5" y="2040" width="78" height="78" as="geometry" />
        </mxCell>
        <mxCell id="L810NW4hUjRYjr-CqX88-3" value="" style="edgeStyle=orthogonalEdgeStyle;html=1;endArrow=block;elbow=vertical;startArrow=block;startFill=1;endFill=1;strokeColor=#545B64;rounded=0;" parent="1" source="_ywE8sGmRXG5GQr4Udn0-63" target="_ywE8sGmRXG5GQr4Udn0-51" edge="1">
          <mxGeometry width="100" relative="1" as="geometry">
            <mxPoint x="1640" y="2100" as="sourcePoint" />
            <mxPoint x="490" y="2280" as="targetPoint" />
            <Array as="points">
              <mxPoint x="1200" y="2010" />
              <mxPoint x="1078" y="2010" />
            </Array>
          </mxGeometry>
        </mxCell>
        <mxCell id="L810NW4hUjRYjr-CqX88-4" value="" style="edgeStyle=orthogonalEdgeStyle;html=1;endArrow=block;elbow=vertical;startArrow=block;startFill=1;endFill=1;strokeColor=#545B64;rounded=0;" parent="1" source="_ywE8sGmRXG5GQr4Udn0-62" target="_ywE8sGmRXG5GQr4Udn0-51" edge="1">
          <mxGeometry width="100" relative="1" as="geometry">
            <mxPoint x="700" y="2290" as="sourcePoint" />
            <mxPoint x="800" y="2290" as="targetPoint" />
            <Array as="points">
              <mxPoint x="960" y="2010" />
              <mxPoint x="1078" y="2010" />
            </Array>
          </mxGeometry>
        </mxCell>
        <mxCell id="L810NW4hUjRYjr-CqX88-5" value="" style="edgeStyle=orthogonalEdgeStyle;html=1;endArrow=block;elbow=vertical;startArrow=block;startFill=1;endFill=1;strokeColor=#545B64;rounded=0;" parent="1" source="_ywE8sGmRXG5GQr4Udn0-52" target="_ywE8sGmRXG5GQr4Udn0-51" edge="1">
          <mxGeometry width="100" relative="1" as="geometry">
            <mxPoint x="1110" y="2320" as="sourcePoint" />
            <mxPoint x="1210" y="2320" as="targetPoint" />
          </mxGeometry>
        </mxCell>
        <mxCell id="L810NW4hUjRYjr-CqX88-6" value="" style="edgeStyle=orthogonalEdgeStyle;html=1;endArrow=block;elbow=vertical;startArrow=block;startFill=1;endFill=1;strokeColor=#545B64;rounded=0;" parent="1" source="_ywE8sGmRXG5GQr4Udn0-7" target="_ywE8sGmRXG5GQr4Udn0-52" edge="1">
          <mxGeometry width="100" relative="1" as="geometry">
            <mxPoint x="640" y="2280" as="sourcePoint" />
            <mxPoint x="740" y="2280" as="targetPoint" />
          </mxGeometry>
        </mxCell>
        <mxCell id="L810NW4hUjRYjr-CqX88-7" style="edgeStyle=orthogonalEdgeStyle;rounded=0;orthogonalLoop=1;jettySize=auto;html=1;strokeColor=#ed7100;exitX=1;exitY=0.5;exitDx=0;exitDy=0;exitPerimeter=0;" parent="1" source="_ywE8sGmRXG5GQr4Udn0-27" target="_ywE8sGmRXG5GQr4Udn0-71" edge="1">
          <mxGeometry relative="1" as="geometry">
            <mxPoint x="1640" y="1670" as="sourcePoint" />
            <mxPoint x="1550" y="1730" as="targetPoint" />
          </mxGeometry>
        </mxCell>
        <mxCell id="wDm-2wXrq-0tG4cOfVoo-1" value="" style="endArrow=none;html=1;rounded=0;" edge="1" parent="1">
          <mxGeometry width="50" height="50" relative="1" as="geometry">
            <mxPoint x="1410" y="1200" as="sourcePoint" />
            <mxPoint x="1480" y="1200" as="targetPoint" />
          </mxGeometry>
        </mxCell>
      </root>
    </mxGraphModel>
  </diagram>
</mxfile>
